<svg width="42" height="16" viewBox="0 0 42 16" fill="none" xmlns="http://www.w3.org/2000/svg">
<path d="M0 3.2C0 2.0799 0 1.51984 0.217987 1.09202C0.409734 0.715695 0.715695 0.409734 1.09202 0.217987C1.51984 0 2.0799 0 3.2 0L38.0847 0C39.4078 0 40.0694 0 40.5055 0.276771C40.8873 0.519075 41.1624 0.897761 41.2749 1.33575C41.4033 1.83604 41.1988 2.46524 40.7898 3.72362L38.0774 12.0695C37.6183 13.4821 37.3888 14.1884 36.9564 14.711C36.5747 15.1724 36.0826 15.5299 35.5257 15.7503C34.8952 16 34.1525 16 32.6671 16H3.2C2.07989 16 1.51984 16 1.09202 15.782C0.715695 15.5903 0.409734 15.2843 0.217987 14.908C0 14.4802 0 13.9201 0 12.8V3.2Z" fill="url(#paint0_linear_4514_78920)"/>
<defs>
<linearGradient id="paint0_linear_4514_78920" x1="2.22222" y1="-0.00737864" x2="28.8312" y2="23.0076" gradientUnits="userSpaceOnUse">
<stop stop-color="#FF4781"/>
<stop offset="0.403292" stop-color="#FE3673"/>
<stop offset="1" stop-color="#FB0049"/>
</linearGradient>
</defs>
</svg>
