<svg width="13" height="11" viewBox="0 0 13 11" fill="none" xmlns="http://www.w3.org/2000/svg">
<path d="M11.0205 0.80846C9.56037 -0.417689 7.38173 -0.227807 6.15669 1.23327L5.91035 1.52707C4.76684 0.364412 2.92142 0.144827 1.52094 1.09023C-0.0576905 2.15588 -0.475148 4.29965 0.589308 5.87909L2.78553 9.13783C3.24486 9.81938 3.90509 10.2845 4.63425 10.5078C5.92062 10.9036 7.37622 10.5229 8.29519 9.42687L11.4464 5.66847C12.6702 4.20897 12.4791 2.0333 11.0205 0.80846Z" fill="#C9BDBB" fill-opacity="0.5"/>
<mask id="mask0_5914_2625" style="mask-type:luminance" maskUnits="userSpaceOnUse" x="-1" y="0" width="14" height="11">
<path d="M6.15625 1.23343C7.38129 -0.227645 9.56036 -0.417525 11.0205 0.808624C12.479 2.03348 12.67 4.2095 11.4463 5.66898L8.29492 9.42679C7.81344 10.001 7.18434 10.3771 6.50977 10.5498C6.4973 10.5531 6.48515 10.5575 6.47266 10.5606C6.42697 10.5717 6.38102 10.5816 6.33496 10.5909C6.3262 10.5926 6.31737 10.594 6.30859 10.5957C6.26058 10.605 6.21239 10.6129 6.16406 10.6201C6.15718 10.6212 6.15044 10.6231 6.14355 10.6241C6.04796 10.6378 5.95185 10.6466 5.85547 10.6524C5.83494 10.6536 5.81447 10.6554 5.79395 10.6563C5.77377 10.6571 5.75358 10.6568 5.7334 10.6573C5.70082 10.658 5.66829 10.6593 5.63574 10.6592C5.61164 10.6591 5.58758 10.6579 5.56348 10.6573C5.52862 10.6564 5.49377 10.6562 5.45898 10.6543C5.36304 10.6491 5.26733 10.6393 5.17188 10.626C5.16339 10.6248 5.15496 10.6233 5.14648 10.6221C5.11287 10.6172 5.0794 10.6114 5.0459 10.6055C5.02212 10.6013 4.99829 10.5975 4.97461 10.5928C4.8825 10.5745 4.791 10.5524 4.7002 10.5264C4.68325 10.5216 4.66629 10.5168 4.64941 10.5117C4.63238 10.5066 4.61561 10.5006 4.59863 10.4951C3.88377 10.2677 3.23691 9.80804 2.78516 9.13773L0.588867 5.87894C-0.475313 4.29956 -0.0579557 2.15548 1.52051 1.08987C2.92083 0.144588 4.76564 0.365075 5.90918 1.52737L6.15625 1.23343Z" fill="white"/>
</mask>
<g mask="url(#mask0_5914_2625)">
<path fill-rule="evenodd" clip-rule="evenodd" d="M6.28057 1.96834L6.31288 2.01537C6.31337 2.01609 6.31385 2.01682 6.31217 2.019L8.09202 4.65997L8.73245 5.60086C9.25117 6.36296 10.2895 6.56027 11.0516 6.04155C11.1705 5.96059 11.2785 5.86462 11.3728 5.75603L11.3884 5.73781L8.43479 9.2416C8.33944 9.37266 8.23414 9.49788 8.11912 9.61607L8.11704 9.61839C7.96355 9.77568 7.79272 9.92067 7.60517 10.0503L7.57521 10.0708C6.01298 11.1285 3.89528 10.7313 2.81852 9.19069L2.78621 9.14365C2.78573 9.14293 2.78524 9.14221 2.78692 9.14002L0.5907 5.88129C-0.460965 4.3162 -0.0631607 2.19999 1.47522 1.12172L1.52388 1.08822C3.08611 0.0305118 5.20382 0.427726 6.28057 1.96834Z" fill="url(#paint0_linear_5914_2625)"/>
</g>
<defs>
<linearGradient id="paint0_linear_5914_2625" x1="13.4099" y1="4.24449" x2="4.2277" y2="-3.00644" gradientUnits="userSpaceOnUse">
<stop stop-color="#FF005E"/>
<stop offset="0.347101" stop-color="#FF0A40"/>
<stop offset="1" stop-color="#FFA547"/>
</linearGradient>
</defs>
</svg>
